<?xml version="1.0" encoding="UTF-8"?>
<svg width="81px" height="30px" viewBox="0 0 81 30" version="1.1" xmlns="http://www.w3.org/2000/svg" xmlns:xlink="http://www.w3.org/1999/xlink">
    <!-- Generator: Sketch 59 (86127) - https://sketch.com -->
    <title>Group 2 Copy</title>
    <desc>Created with Sketch.</desc>
    <g id="website" stroke="none" stroke-width="1" fill="none" fill-rule="evenodd">
        <g id="Group-2-Copy" fill="#F0B90B" fill-rule="nonzero">
            <path d="M20.6645552,17.3740969 L24.0283793,20.7523896 L14.8975673,29.9220479 L5.76698795,20.7523896 L9.13081208,17.3740969 L14.8975673,23.1654625 L20.6645552,17.3740969 Z M3.36405691,11.5827312 L6.72811381,14.961024 L3.36405691,18.33934 L7.60280727e-13,14.961024 L3.36405691,11.5827312 Z M26.4313104,11.5827312 L29.7951345,14.961024 L26.4313104,18.3393167 L23.0672535,14.961024 L26.4313104,11.5827312 Z M14.8975673,11.5827312 L18.2616242,14.961024 L14.8975673,18.33934 L11.5337431,14.961024 L14.8975673,11.5827312 Z M14.8975673,7.97584221e-13 L24.0283793,9.16965834 L20.6645552,12.5479511 L14.8975673,6.75658543 L9.13081208,12.5479511 L5.76698795,9.16965834 L14.8975673,7.97584221e-13 Z" id="Combined-Shape-Copy-3"></path>
            <g id="Group" transform="translate(35.000000, 7.000000)">
                <path d="M7.41133331,-9.32587341e-13 C10.6724103,-9.32587341e-13 12.6792335,1.61914369 12.6792335,4.12770819 L12.6792335,4.12770819 L12.6792335,4.17317379 C12.6792335,5.97474821 11.7211881,6.97811718 10.5811381,7.6166247 C12.4283771,8.32361479 13.568427,9.39518215 13.568427,11.5388852 L13.568427,11.5388852 L13.568427,11.584635 C13.568427,14.5035265 11.1967992,15.9629723 7.59387769,15.9629723 L7.59387769,15.9629723 L-4.29878355e-13,15.9629723 L-4.29878355e-13,-9.32587341e-13 Z M7.47967379,9.37273351 L3.42064707,9.37273351 L3.42064707,12.8843828 L7.59384928,12.8843828 C9.14436833,12.8843828 10.0794536,12.3370907 10.0794536,11.151291 L10.0794536,11.151291 L10.0794536,11.1055412 C10.0794536,10.0339738 9.2812482,9.37273351 7.47967379,9.37273351 L7.47967379,9.37273351 Z M6.88671711,3.07858946 L3.42064707,3.07858946 L3.42064707,6.45355781 L6.65879237,6.45355781 C8.20928301,6.45355781 9.19000442,5.95201541 9.19000442,4.76621572 L9.19000442,4.76621572 L9.19000442,4.72075012 C9.19000442,3.67163139 8.36912301,3.07858946 6.88671711,3.07858946 L6.88671711,3.07858946 Z" id="Combined-Shape"></path>
                <path d="M45.8114232,13.6598555 L43.576789,11.4022043 C42.3225067,12.5425383 41.2051896,13.2722612 39.3808824,13.2722612 C36.6441374,13.2722612 34.7513476,10.9918772 34.7513476,8.25513223 L34.7513476,8.20966663 C34.7513476,5.47292164 36.6898872,3.23828739 39.3808824,3.23828739 C40.9770091,3.23828739 42.2312914,3.92226051 43.4628408,5.0398618 L45.6974751,2.46281474 C44.2152965,1.00336897 42.4134379,4.4941828e-13 39.4036152,4.4941828e-13 C34.5004343,4.4941828e-13 31.0800004,3.71709699 31.0800004,8.25513223 L31.0800004,8.30059783 C31.0800004,12.8843828 34.5692011,16.5102645 39.2666501,16.5102645 C42.3452395,16.5102645 44.1695467,15.4159643 45.8114232,13.6598555 Z" id="Path-Copy"></path>
                <path d="M19.5785987,4.36406909 C19.5785987,3.30118936 20.4960833,2.46467931 22.0689235,2.46467931 C23.4670081,2.46467931 24.8432637,3.02996885 26.2194784,4.09284858 L27.6612621,1.98993765 C26.1102511,0.701111351 24.3408264,0 22.1126225,0 C19.0761614,0 16.8916607,1.85411584 16.8916607,4.61286418 C16.8916607,7.55228516 18.7266422,8.54704242 21.9815662,9.36112706 C24.8213937,10.0393899 25.4330583,10.6499534 25.4330583,11.8029578 C25.4330583,13.0240848 24.3844846,13.8153209 22.7242871,13.8153209 C20.8237652,13.8153209 19.3601482,13.0693587 17.8965313,11.7576839 L16.2800002,13.7476216 C18.1149817,15.4434902 20.3213278,16.2800002 22.658759,16.2800002 C25.8699674,16.2800002 28.1200004,14.5164322 28.1200004,11.5317373 C28.1200004,8.88638539 26.4379329,7.68768385 23.2048545,6.87402234 C20.2776369,6.15048558 19.5785987,5.60762145 19.5785987,4.36406909 Z" id="Path" stroke="#F0B90B" stroke-width="0.666000009"></path>
            </g>
        </g>
    </g>
</svg>