<?xml version="1.0" encoding="UTF-8"?>
<svg width="288px" height="288px" viewBox="0 0 288 288" version="1.1" xmlns="http://www.w3.org/2000/svg" xmlns:xlink="http://www.w3.org/1999/xlink">
    <!-- Generator: Sketch 59 (86127) - https://sketch.com -->
    <title>Group Copy 2</title>
    <desc>Created with Sketch.</desc>
    <defs>
        <linearGradient x1="0%" y1="100%" x2="100%" y2="0%" id="linearGradient-1">
            <stop stop-color="#1CECF3" offset="0%"></stop>
            <stop stop-color="#DE3AC7" offset="68.4779576%"></stop>
            <stop stop-color="#FF0031" offset="100%"></stop>
        </linearGradient>
    </defs>
    <g id="Logo" stroke="none" stroke-width="1" fill="none" fill-rule="evenodd">
        <g id="Group-Copy-2">
            <rect id="Rectangle-Copy-10" fill="url(#linearGradient-1)" x="0" y="0" width="288.000011" height="288.000011"></rect>
            <path d="M70.7448028,38.1000015 L75.487203,82.1544033 L74.613603,98.6280039 L76.111203,98.6280039 L89.5896036,60.5640024 L103.442404,60.5640024 L116.920805,98.6280039 L118.543205,98.6280039 L117.919205,82.0296033 L122.412005,38.1000015 L141.256806,38.1000015 L130.399205,120.468005 L109.807204,120.468005 L97.3272039,85.1496034 L95.8296038,85.1496034 L83.3496033,120.468005 L62.7576025,120.468005 L51.9000021,38.1000015 L70.7448028,38.1000015 Z M235.987862,103.495204 L235.987862,120.468005 L159.984659,120.468005 L159.984659,38.1000015 L233.117462,38.1000015 L233.117462,55.0728022 L178.70466,55.0728022 L178.70466,70.2984028 L230.371862,70.2984028 L230.371862,85.7736034 L178.70466,85.7736034 L178.70466,103.495204 L235.987862,103.495204 Z M172.523133,135.309605 L172.523133,149.786406 L121.355131,149.786406 L121.355131,135.309605 L172.523133,135.309605 Z M141.132006,166.740007 L105.938404,220.404009 L105.938404,249.10801 L87.2184035,249.10801 L87.2184035,220.404009 L52.0248021,166.740007 L73.2408029,166.740007 L94.5816038,201.933608 L98.7000039,201.933608 L119.916005,166.740007 L141.132006,166.740007 Z M158.611859,166.740007 L177.33186,166.740007 L177.33186,214.164009 C177.33186,220.48724 178.871045,225.250393 181.94946,228.453609 C185.027876,231.656825 190.144625,233.258409 197.299861,233.258409 C204.455097,233.258409 209.571846,231.656825 212.650261,228.453609 C215.728677,225.250393 217.267861,220.48724 217.267861,214.164009 L217.267861,166.740007 L235.987862,166.740007 L235.987862,214.164009 C235.987862,238.125729 223.091991,250.10641 197.299861,250.10641 C171.507731,250.10641 158.611859,238.125729 158.611859,214.164009 L158.611859,166.740007 Z" id="WE-YU-Copy-31" fill="#FFFFFF"></path>
        </g>
    </g>
</svg>