<?xml version="1.0" encoding="UTF-8"?>
<svg width="52px" height="53px" viewBox="0 0 52 53" version="1.1" xmlns="http://www.w3.org/2000/svg" xmlns:xlink="http://www.w3.org/1999/xlink">
    <!-- Generator: Sketch 59 (86127) - https://sketch.com -->
    <title>ticket (2)</title>
    <desc>Created with Sketch.</desc>
    <g id="website" stroke="none" stroke-width="1" fill="none" fill-rule="evenodd">
        <g id="Home-Airdrop---Earn-Extra-M-Copy" transform="translate(-1090.000000, -627.000000)" fill="#E3DCEB" fill-rule="nonzero">
            <g id="Do-a-task-box-" transform="translate(995.000000, 484.000000)">
                <g id="Group-3" transform="translate(25.000000, 126.000000)">
                    <g id="ticket-(2)" transform="translate(70.000000, 17.769553)">
                        <path d="M51.558719,18.9262076 L44.8556151,12.2231038 C44.5461253,11.9144763 44.0674897,11.8532422 43.6902711,12.0740158 C42.5647152,12.7456159 41.1267866,12.5668158 40.1999849,11.6400141 C39.2731832,10.7132124 39.0943831,9.27528375 39.7659832,8.14972784 C39.987315,7.77262322 39.9260342,7.29362284 39.6168952,6.98438386 L32.9137913,0.281279994 C32.5389005,-0.0935506441 31.9311462,-0.0935506441 31.5562554,0.281279994 L0.281279994,31.5562554 C-0.0935506441,31.9311462 -0.0935506441,32.5389005 0.281279994,32.9137913 L6.98438386,39.6168952 C7.29365427,39.9259701 7.77260893,39.987245 8.14972784,39.7659832 C9.27528375,39.0943831 10.7132124,39.2731832 11.6400141,40.1999849 C12.5668158,41.1267866 12.7456159,42.5647152 12.0740158,43.6902711 C11.852684,44.0673757 11.9139648,44.5463761 12.2231038,44.8556151 L18.9262076,51.558719 C19.3010985,51.9335496 19.9088528,51.9335496 20.2837436,51.558719 L51.558719,20.2837436 C51.9335496,19.9088528 51.9335496,19.3010985 51.558719,18.9262076 L51.558719,18.9262076 Z M26.3934715,42.7342072 L24.7190395,41.0596792 C24.3425512,40.6944981 23.7426619,40.6990813 23.3717972,41.0699722 C23.0009326,41.440863 22.9963918,42.0407527 23.3615995,42.4172152 L25.0359355,44.0915511 L19.6050236,49.522463 L14.0624637,43.9799991 C14.7631299,42.2083025 14.3446859,40.189693 12.9974959,38.842503 C11.6503059,37.495313 9.63169642,37.0768691 7.85999984,37.7775352 L2.31753595,32.2349754 L7.74844785,26.8040635 L9.78470381,28.8403194 C10.0259391,29.0889889 10.382446,29.1883861 10.7175429,29.1004028 C11.0526398,29.0124195 11.3143336,28.7507073 11.4022931,28.4156041 C11.4902527,28.080501 11.3908303,27.7240011 11.1421438,27.4827835 L9.10598382,25.4465275 L32.2349754,2.31753595 L37.7775352,7.85999984 C37.0768691,9.63169642 37.495313,11.6503059 38.842503,12.9974959 C40.189693,14.3446859 42.2083025,14.7631299 43.9799991,14.0624637 L49.522463,19.6050236 L26.3934715,42.7342072 Z" id="Shape"></path>
                        <path d="M13.8580797,30.1987194 C13.4815915,29.8335383 12.8817021,29.8381215 12.5108375,30.2090124 C12.1399728,30.5799033 12.1354321,31.1797929 12.5006398,31.5562554 L15.2159997,34.2712313 C15.5924621,34.636439 16.1923518,34.6318983 16.5632427,34.2610336 C16.9341336,33.890169 16.9387167,33.2902796 16.5735357,32.9137913 L13.8580797,30.1987194 Z" id="Path"></path>
                        <path d="M19.2881276,35.6287673 C18.9116652,35.2635596 18.3117755,35.2681003 17.9408846,35.638965 C17.5699937,36.0098296 17.5654106,36.609719 17.9305916,36.9862073 L20.6465276,39.7021432 C20.8877453,39.9508298 21.2442452,40.0502521 21.5793483,39.9622926 C21.9144514,39.874333 22.1761637,39.6126392 22.2641469,39.2775423 C22.3521302,38.9424454 22.2527331,38.5859385 22.0040636,38.3447032 L19.2881276,35.6287673 Z" id="Path"></path>
                        <path d="M38.2968952,19.9687676 C37.9220044,19.593937 37.3142501,19.593937 36.9393593,19.9687676 L24.7209595,32.1881274 C24.4722729,32.429345 24.3728506,32.7858449 24.4608102,33.120948 C24.5487697,33.4560512 24.8104635,33.7177635 25.1455604,33.8057467 C25.4806573,33.89373 25.8371642,33.7943328 26.0783995,33.5456633 L38.2968952,21.3262076 C38.6716619,20.9513277 38.6716619,20.3436475 38.2968952,19.9687676 L38.2968952,19.9687676 Z" id="Path"></path>
                        <path d="M39.6552952,22.6847995 L27.4359355,34.9031033 C27.1882857,35.1445544 27.0896641,35.5005566 27.1777709,35.8350207 C27.2658776,36.1694847 27.52709,36.4306971 27.8615541,36.5188038 C28.1960181,36.6069106 28.5520204,36.508289 28.7934714,36.2606393 L41.0128312,24.0421435 C41.2615007,23.8009082 41.3608978,23.4444013 41.2729146,23.1093044 C41.1849313,22.7742075 40.923219,22.5125138 40.5881159,22.4245542 C40.2530128,22.3365946 39.8965129,22.436017 39.6552952,22.6847035 L39.6552952,22.6847995 Z" id="Path"></path>
                        <path d="M26.7263995,27.1296029 C26.7766684,27.1297389 26.8268604,27.1256606 26.8764475,27.1174075 C27.2373115,27.0602321 27.5345146,26.8033234 27.6432955,26.4545275 L28.4880954,23.7358075 L31.2068154,22.8910075 C31.5557371,22.7824329 31.8127592,22.4851795 31.8698092,22.1242361 C31.9268592,21.7632927 31.7740426,21.401261 31.4756154,21.1903676 L29.1515514,19.5469436 L29.1881274,16.6997757 C29.1927822,16.3344595 28.9896751,15.9981672 28.664177,15.8322501 C28.3386788,15.666333 27.9472183,15.6995549 27.6543355,15.9179517 L25.3715515,17.6204156 L22.6762555,16.7063037 C22.3301091,16.5892077 21.9475028,16.6786306 21.6891146,16.9370187 C21.4307265,17.1954069 21.3413036,17.5780132 21.4583996,17.9241596 L22.3725116,20.6204156 L20.6700476,22.9022395 C20.45301,23.193361 20.4188059,23.582027 20.5816616,23.9065806 C20.7445174,24.2311342 21.0765584,24.4360243 21.4396796,24.4360315 L21.4518716,24.4360315 L24.2980795,24.3994555 L25.9424635,26.7235195 C26.122439,26.9780235 26.4146889,27.1294094 26.7263995,27.1296029 L26.7263995,27.1296029 Z M24.7904635,22.4730236 L24.7782715,22.4730236 L23.3730235,22.4907836 L24.2139835,21.3639356 C24.4024902,21.1106287 24.454693,20.780944 24.3536635,20.4817916 L23.9017915,19.1495996 L25.2330235,19.6014716 C25.5322605,19.7014917 25.8614684,19.6493645 26.1151675,19.4617916 L27.2429755,18.6198716 L27.2252155,20.0270396 C27.2215833,20.3429101 27.3733006,20.640424 27.6311035,20.8229756 L28.7785914,21.6348476 L27.4361275,22.0520636 C27.1343388,22.145845 26.8980369,22.3821469 26.8042555,22.6839355 L26.3870395,24.0273595 L25.5743995,22.8787195 C25.3945392,22.6240073 25.1020855,22.4726246 24.7902715,22.4728316 L24.7904635,22.4730236 Z" id="Shape"></path>
                    </g>
                </g>
            </g>
        </g>
    </g>
</svg>