<?xml version="1.0" encoding="UTF-8"?>
<svg width="89px" height="55px" viewBox="0 0 89 55" version="1.1" xmlns="http://www.w3.org/2000/svg" xmlns:xlink="http://www.w3.org/1999/xlink">
    <!-- Generator: Sketch 59 (86127) - https://sketch.com -->
    <title>Path</title>
    <desc>Created with Sketch.</desc>
    <defs>
        <linearGradient x1="0%" y1="68.7860722%" x2="100%" y2="31.2139278%" id="linearGradient-1">
            <stop stop-color="#1CECF3" offset="0%"></stop>
            <stop stop-color="#DE3AC7" offset="68.4779576%"></stop>
            <stop stop-color="#FF0031" offset="100%"></stop>
        </linearGradient>
    </defs>
    <g id="website" stroke="none" stroke-width="1" fill="none" fill-rule="evenodd">
        <path d="M88.584115,52.4560447 L88.584115,34.2598196 C88.5829446,33.4208499 88.0164062,32.6880856 87.2047523,32.4757431 C84.7654752,31.8595896 83.0564619,29.6652062 83.0564619,27.1493131 C83.0564619,24.63342 84.7654752,22.4390366 87.2047523,21.8228831 C88.0170091,21.6114529 88.584115,20.87813 88.584115,20.0388066 L88.584115,1.84258149 C88.584115,0.82498568 87.7591293,0 86.7415335,0 L1.84258149,0 C0.82498568,0 0,0.82498568 0,1.84258149 L0,20.0388066 C0,20.8780858 0.567181407,21.6113386 1.37936268,21.8228831 C3.81863981,22.4390366 5.52765308,24.63342 5.52765308,27.1493131 C5.52765308,29.6652062 3.81863981,31.8595896 1.37936268,32.4757431 C0.567105922,32.6871733 0,33.4204962 0,34.2598196 L0,52.4560447 C0,53.4736405 0.82498568,54.2986262 1.84258149,54.2986262 L86.7415335,54.2986262 C87.7106724,54.2986262 88.5050341,53.5503325 88.5785605,52.6000365 L88.584115,52.4560447 Z" id="Path" fill="url(#linearGradient-1)" fill-rule="nonzero"></path>
    </g>
</svg>