<?xml version="1.0" encoding="UTF-8"?>
<svg width="65px" height="57px" viewBox="0 0 65 57" version="1.1" xmlns="http://www.w3.org/2000/svg" xmlns:xlink="http://www.w3.org/1999/xlink">
    <!-- Generator: Sketch 59 (86127) - https://sketch.com -->
    <title>tickets</title>
    <desc>Created with Sketch.</desc>
    <defs>
        <path d="M1.153,0.324 C0.628,0.332 0.207,0.76 0.207,1.284 L0.207,1.284 C0.207,1.809 0.628,2.236 1.153,2.245 L1.153,2.245 L4.992,2.244 C5.517,2.236 5.938,1.808 5.938,1.284 L5.938,1.284 C5.938,0.759 5.517,0.332 4.992,0.323 L4.992,0.323 L1.153,0.324 Z" id="path-1"></path>
        <path d="M4.464,0.695 C4.116,0.809 3.863,1.109 3.81,1.471 L3.81,1.471 L3.4,4.288 L0.847,5.548 C0.52,5.71 0.313,6.044 0.313,6.409 L0.313,6.409 C0.313,6.775 0.52,7.109 0.847,7.271 L0.847,7.271 L3.401,8.531 L3.81,11.348 C3.862,11.708 4.114,12.006 4.458,12.121 L4.458,12.121 C4.802,12.235 5.182,12.145 5.439,11.888 L5.439,11.888 L5.448,11.88 L7.434,9.841 L10.241,10.322 C10.548,10.375 10.862,10.275 11.082,10.055 L11.082,10.055 C11.118,10.019 11.15,9.98 11.179,9.94 L11.179,9.94 C11.395,9.645 11.422,9.252 11.253,8.929 L11.253,8.929 L9.927,6.409 L11.253,3.889 C11.423,3.565 11.395,3.174 11.179,2.879 L11.179,2.879 C10.964,2.583 10.601,2.435 10.241,2.496 L10.241,2.496 L7.435,2.978 L5.448,0.939 C5.264,0.75 5.014,0.649 4.759,0.649 L4.759,0.649 C4.66,0.649 4.561,0.664 4.464,0.695 L4.464,0.695 Z M5.229,7.754 C5.183,7.442 4.986,7.173 4.703,7.031 L4.703,7.031 L3.442,6.409 L4.703,5.787 C4.985,5.647 5.181,5.377 5.228,5.065 L5.228,5.065 L5.43,3.672 L6.412,4.68 C6.633,4.905 6.951,5.009 7.263,4.955 L7.263,4.955 L8.648,4.718 L7.993,5.962 C7.847,6.243 7.847,6.577 7.993,6.856 L7.993,6.856 L8.649,8.1 L7.262,7.864 C6.954,7.811 6.64,7.91 6.42,8.131 L6.42,8.131 L6.412,8.14 L5.431,9.146 L5.229,7.754 Z" id="path-3"></path>
    </defs>
    <g id="website" stroke="none" stroke-width="1" fill="none" fill-rule="evenodd">
        <g id="Home-Airdrop---Earn-Extra-M-Copy" transform="translate(-1295.000000, -630.000000)">
            <g id="Do-a-task-box-" transform="translate(995.000000, 484.000000)">
                <g id="Group-4" transform="translate(225.000000, 126.000000)">
                    <g id="tickets" transform="translate(75.000000, 20.000000)">
                        <g id="Group-3" transform="translate(8.000000, 35.000000)">
                            <mask id="mask-2" fill="white">
                                <use xlink:href="#path-1"></use>
                            </mask>
                            <g id="Clip-2"></g>
                            <polygon id="Fill-1" fill="#E3DCEB" mask="url(#mask-2)" points="-7.2611 1.2844 3.0729 -9.0506 13.4069 1.2834 3.0729 11.6184"></polygon>
                        </g>
                        <g id="Group-6" transform="translate(5.000000, 14.000000)">
                            <mask id="mask-4" fill="white">
                                <use xlink:href="#path-3"></use>
                            </mask>
                            <g id="Clip-5"></g>
                            <polygon id="Fill-4" fill="#E3DCEB" mask="url(#mask-4)" points="-8.4686 6.4094 6.6644 -8.7246 21.7984 6.4094 6.6644 21.5434"></polygon>
                        </g>
                        <g id="Group-35" fill="#E3DCEB">
                            <path d="M20.1598,11.7698 C20.1598,11.2398 19.7298,10.8098 19.2008,10.8098 C18.6698,10.8098 18.2408,11.2398 18.2408,11.7698 L18.2408,29.0488 C18.2358,29.3958 18.4168,29.7178 18.7168,29.8928 C18.9188,30.0108 19.1528,30.0428 19.3758,30.0008 L20.1388,29.2388 C20.1498,29.1758 20.1618,29.1148 20.1608,29.0498 L20.1598,11.7698 Z" id="Fill-7"></path>
                            <path d="M24.0006,11.7698 C24.0056,11.4228 23.8246,11.1008 23.5246,10.9258 C23.2256,10.7508 22.8556,10.7508 22.5566,10.9258 C22.2576,11.1008 22.0756,11.4228 22.0816,11.7698 L22.0806,27.2958 L24.0006,25.3758 L24.0006,11.7698 Z" id="Fill-9"></path>
                            <path d="M27.1564,46.844 C27.1354,46.179 26.9744,45.527 26.6854,44.924 L24.3564,44.924 C24.3734,44.941 24.3924,44.952 24.4094,44.969 C24.9244,45.484 25.1984,46.156 25.2344,46.844 L27.1564,46.844 Z" id="Fill-11"></path>
                            <path d="M15.9064,36.1858 L16.7494,35.3418 C16.3004,35.3888 15.9544,35.7378 15.9064,36.1858" id="Fill-13"></path>
                            <path d="M19.6847,29.8928 C19.9287,29.7508 20.0877,29.5098 20.1387,29.2388 L19.3757,30.0008 C19.4827,29.9818 19.5877,29.9498 19.6847,29.8928" id="Fill-15"></path>
                            <path d="M64.3282,23.6956 L57.6252,16.9926 C57.3152,16.6836 56.8372,16.6236 56.4602,16.8436 C55.3342,17.5146 53.8962,17.3366 52.9692,16.4096 C52.0422,15.4826 51.8642,14.0456 52.5352,12.9196 C52.7572,12.5426 52.6952,12.0626 52.3862,11.7546 L45.6832,5.0506 C45.3082,4.6756 44.7012,4.6756 44.3262,5.0506 L28.8002,20.5766 L28.8002,1.6546 C28.8002,1.1246 28.3702,0.6946 27.8402,0.6946 L18.3612,0.6946 C17.9232,0.6956 17.5422,0.9906 17.4312,1.4136 C17.1102,2.6836 15.9672,3.5746 14.6562,3.5746 C13.3462,3.5746 12.2022,2.6836 11.8812,1.4136 C11.7712,0.9906 11.3892,0.6946 10.9522,0.6946 L1.4722,0.6946 C0.9422,0.6946 0.5132,1.1246 0.5132,1.6546 L0.5132,45.8836 C0.5132,46.4146 0.9422,46.8436 1.4722,46.8436 L10.9522,46.8436 C11.3892,46.8436 11.7712,46.5496 11.8812,46.1256 C12.2022,44.8546 13.3462,43.9646 14.6562,43.9646 C15.9672,43.9646 17.1102,44.8546 17.4312,46.1256 C17.5412,46.5496 17.9232,46.8436 18.3612,46.8436 L25.2342,46.8436 C25.1982,46.1556 24.9242,45.4836 24.4092,44.9686 C24.3922,44.9526 24.3732,44.9406 24.3562,44.9246 L19.0422,44.9246 C18.2852,43.1756 16.5612,42.0456 14.6562,42.0456 C12.7512,42.0456 11.0282,43.1756 10.2702,44.9246 L2.4322,44.9246 L2.4322,37.2446 L5.3122,37.2446 C5.6582,37.2496 5.9802,37.0676 6.1552,36.7676 C6.3302,36.4686 6.3302,36.0986 6.1552,35.7996 C5.9802,35.5006 5.6582,35.3186 5.3122,35.3246 L2.4322,35.3246 L2.4322,2.6146 L10.2702,2.6146 C11.0282,4.3626 12.7512,5.4946 14.6562,5.4946 C16.5612,5.4946 18.2852,4.3626 19.0422,2.6146 L26.8802,2.6146 L26.8802,22.4966 L24.0002,25.3766 L22.0802,27.2966 L20.1382,29.2386 C20.0872,29.5096 19.9282,29.7516 19.6842,29.8926 C19.5882,29.9496 19.4822,29.9816 19.3752,30.0016 L13.0512,36.3256 C12.6762,36.7006 12.6762,37.3086 13.0512,37.6836 L19.7542,44.3866 C20.0632,44.6956 20.5422,44.7576 20.9192,44.5356 C22.0242,43.8766 23.4282,44.0416 24.3562,44.9246 L26.6852,44.9246 C26.4562,44.4476 26.1552,44.0006 25.7672,43.6116 C24.4202,42.2646 22.4012,41.8456 20.6292,42.5476 L15.0872,37.0046 L15.9062,36.1856 C15.9542,35.7376 16.3002,35.3886 16.7492,35.3416 L20.5182,31.5736 L22.5542,33.6096 C22.7952,33.8586 23.1522,33.9586 23.4872,33.8696 C23.8222,33.7816 24.0842,33.5196 24.1722,33.1846 C24.2602,32.8496 24.1602,32.4936 23.9112,32.2526 L21.8752,30.2166 L22.3562,29.7356 L24.0002,28.0916 L26.8802,25.2116 L28.8002,23.2916 L45.0042,7.0876 L50.5472,12.6296 C49.8462,14.4016 50.2652,16.4206 51.6122,17.7666 C52.9592,19.1146 54.9772,19.5326 56.7492,18.8326 L62.2922,24.3746 L39.1632,47.5046 L37.4882,45.8296 C37.1122,45.4646 36.5122,45.4686 36.1412,45.8396 C35.7702,46.2106 35.7662,46.8106 36.1312,47.1866 L37.8052,48.8616 L32.3742,54.2926 L26.8322,48.7496 C27.0762,48.1316 27.1762,47.4836 27.1562,46.8436 L25.2342,46.8436 C25.2642,47.3966 25.1422,47.9596 24.8432,48.4596 C24.6222,48.8376 24.6832,49.3156 24.9932,49.6256 L31.6962,56.3286 C32.0702,56.7036 32.6782,56.7036 33.0532,56.3286 L64.3282,25.0526 C64.7032,24.6776 64.7032,24.0706 64.3282,23.6956" id="Fill-17"></path>
                            <polygon id="Fill-19" points="26.1886 37.2444 26.8806 37.9354 26.8806 37.2444"></polygon>
                            <path d="M26.8805,35.3245 L26.8805,35.2205 L26.6275,34.9685 C26.2515,34.6025 25.6515,34.6075 25.2805,34.9785 C25.1795,35.0795 25.1115,35.1985 25.0645,35.3245 L26.8805,35.3245 Z" id="Fill-21"></path>
                            <path d="M29.3326,39.0305 C29.7036,38.6595 29.7076,38.0595 29.3426,37.6835 L28.8006,37.1405 L28.8006,39.2835 C28.9946,39.2535 29.1836,39.1795 29.3326,39.0305" id="Fill-23"></path>
                            <path d="M27.9855,39.0413 C28.2105,39.2593 28.5125,39.3283 28.8005,39.2833 L28.8005,37.1413 L26.8805,35.2213 L26.8805,35.3243 L25.0645,35.3243 C24.9405,35.6603 25.0045,36.0523 25.2705,36.3253 L26.1885,37.2443 L26.8805,37.2443 L26.8805,37.9363 L27.9855,39.0413 Z" id="Fill-25"></path>
                            <path d="M34.3488,44.7317 C34.6838,44.6437 34.9458,44.3817 35.0338,44.0467 C35.1218,43.7117 35.0218,43.3557 34.7738,43.1147 L32.0578,40.3987 C31.6818,40.0337 31.0808,40.0377 30.7108,40.4087 C30.3398,40.7797 30.3348,41.3787 30.7008,41.7557 L33.4158,44.4717 C33.6578,44.7197 34.0138,44.8197 34.3488,44.7317" id="Fill-27"></path>
                            <path d="M51.0665,26.0959 C51.4415,25.7209 51.4415,25.1139 51.0665,24.7389 C50.6915,24.3639 50.0835,24.3639 49.7095,24.7389 L37.4905,36.9569 C37.2415,37.1989 37.1425,37.5549 37.2305,37.8909 C37.3185,38.2259 37.5805,38.4879 37.9155,38.5749 C38.2505,38.6629 38.6065,38.5639 38.8475,38.3149 L51.0665,26.0959 Z" id="Fill-29"></path>
                            <path d="M54.0426,27.8792 C53.9546,27.5432 53.6926,27.2812 53.3576,27.1932 C53.0226,27.1062 52.6666,27.2052 52.4246,27.4542 L40.2056,39.6722 C39.9576,39.9142 39.8586,40.2702 39.9476,40.6052 C40.0356,40.9392 40.2966,41.2002 40.6306,41.2882 C40.9656,41.3762 41.3216,41.2772 41.5636,41.0302 L53.7826,28.8122 C54.0306,28.5702 54.1306,28.2142 54.0426,27.8792" id="Fill-31"></path>
                            <path d="M38.8849,24.2317 L40.0119,23.3887 L39.9949,24.7967 C39.9909,25.1127 40.1429,25.4107 40.4009,25.5917 L41.5479,26.4047 L40.2059,26.8217 C39.9039,26.9157 39.6679,27.1517 39.5739,27.4537 L39.1559,28.7967 L38.3439,27.6487 C38.1639,27.3937 37.8719,27.2427 37.5599,27.2427 L37.5599,27.2427 L37.5479,27.2427 L36.1429,27.2597 L36.9839,26.1327 C37.1719,25.8797 37.2239,25.5507 37.1229,25.2517 L36.6719,23.9197 L38.0029,24.3717 C38.3019,24.4707 38.6309,24.4187 38.8849,24.2317 L38.8849,24.2317 Z M35.1419,25.3897 L33.4399,27.6717 C33.2229,27.9627 33.1889,28.3517 33.3509,28.6757 C33.5139,29.0007 33.8459,29.2057 34.2089,29.2057 L34.2209,29.2057 L37.0679,29.1687 L38.7119,31.4937 C38.8919,31.7477 39.1839,31.8987 39.4959,31.8987 C39.5459,31.8997 39.5959,31.8947 39.6459,31.8867 C40.0069,31.8307 40.3039,31.5727 40.4129,31.2237 L41.2579,28.5047 L43.9759,27.6607 C44.3249,27.5517 44.5819,27.2537 44.6389,26.8937 C44.6969,26.5327 44.5439,26.1707 44.2449,25.9607 L41.9209,24.3167 L41.9579,21.4687 C41.9629,21.1037 41.7599,20.7677 41.4339,20.6017 C41.1079,20.4357 40.7169,20.4687 40.4239,20.6877 L38.1409,22.3897 L35.4459,21.4757 C35.0999,21.3587 34.7169,21.4487 34.4589,21.7067 C34.1999,21.9647 34.1109,22.3477 34.2279,22.6937 L35.1419,25.3897 Z" id="Fill-33"></path>
                        </g>
                    </g>
                </g>
            </g>
        </g>
    </g>
</svg>